<?xml version="1.0"?>
<svg xmlns="http://www.w3.org/2000/svg" viewBox="0 0 26 26" enable-background="new 0 0 26 26">
    <path d="M 5 1 C 3.9069372 1 3 1.9069372 3 3 L 3 10 C 3 11.093063 3.9069372 12 5 12 L 5 13 L 3 13 C 1.343 13 0 15.686 0 19 C 0 22.314 1.343 25 3 25 L 20 25 C 20.552 25 21 24.552 21 24 L 21 23 L 22 23 C 24.209 23 26 21.209 26 19 C 26 16.791 24.209 15 22 15 L 21 15 L 21 14 C 21 13.448 20.552 13 20 13 L 19 13 L 19 12 C 20.093063 12 21 11.093063 21 10 L 21 3 C 21 1.9069372 20.093063 1 19 1 L 5 1 z M 5 3 L 19 3 L 19 10 L 5 10 L 5 3 z M 7 12 L 17 12 L 17 13 L 7 13 L 7 12 z M 4 16 L 6 16 L 6 18 L 8 18 L 8 20 L 6 20 L 6 22 L 4 22 L 4 20 L 2 20 L 2 18 L 4 18 L 4 16 z M 22 17 C 23.104 17 24 17.895 24 19 C 24 20.105 23.104 21 22 21 C 20.896 21 20 20.105 20 19 C 20 17.895 20.896 17 22 17 z"/>
</svg>
